<?xml version="1.0" encoding="UTF-8"?>
<svg id="Calque_1" data-name="Calque 1" xmlns="http://www.w3.org/2000/svg" xmlns:xlink="http://www.w3.org/1999/xlink" version="1.1" viewBox="0 0 512 512">
  <defs>
    <style>
      .cls-1 {
        fill: url(#Dégradé_sans_nom);
      }

      .cls-1, .cls-2, .cls-3 {
        stroke-width: 0px;
      }

      .cls-2 {
        fill: url(#Dégradé_sans_nom_2);
      }

      .cls-3 {
        fill: #fff;
      }
    </style>
    <linearGradient id="Dégradé_sans_nom" data-name="Dégradé sans nom" x1="82.8" y1="429.2" x2="429.2" y2="82.8" gradientTransform="translate(0 512) scale(1 -1)" gradientUnits="userSpaceOnUse">
      <stop offset="0" stop-color="#62e8a2"/>
      <stop offset="1" stop-color="#13ce63"/>
    </linearGradient>
    <linearGradient id="Dégradé_sans_nom_2" data-name="Dégradé sans nom 2" x1="214.8" y1="297.2" x2="429.2" y2="82.8" gradientTransform="translate(0 512) scale(1 -1)" gradientUnits="userSpaceOnUse">
      <stop offset="0" stop-color="#098e3f"/>
      <stop offset="1" stop-color="#098e3f" stop-opacity="0"/>
    </linearGradient>
  </defs>
  <g id="Layer_2" data-name="Layer 2">
    <g id="Layer_2_copy_7" data-name="Layer 2 copy 7">
      <g id="_58" data-name=" 58">
        <circle id="background" class="cls-1" cx="256" cy="256" r="245"/>
        <path class="cls-2" d="M500,277.8c-10.4,117.9-104.3,211.8-222.2,222.2l-103.7-103.7-51.1-83.8,56.1-62,78.3,78.2,13.1-8.7-40.9-40.9-24.2-50.3,113.7-106.9,77.2,52,103.9,103.9Z"/>
        <g id="_58-2" data-name=" 58-2">
          <path class="cls-3" d="M294.5,115.7l-92.5,92.5c-12,12-12,31.4,0,43.4l27.5,27.5c5.3,5.3,13.8,5.3,19.1,0,0,0,0,0,0,0,5.3-5.3,5.3-13.8,0-19.1,0,0,0,0,0,0l-23.7-23.7c-3.5-3.5-3.5-9.3,0-12.8l84.9-84.9c3.5-3.5,9.3-3.5,12.8,0l50.7,50.7c3.5,3.5,3.5,9.3,0,12.8l-40.3,40.3c-5.3,5.3-5.3,13.9,0,19.1h0c5.3,5.3,13.8,5.3,19.1,0,0,0,0,0,0,0l44.1-44.1c12-12,12-31.4,0-43.4l-58.3-58.2c-12-12-31.4-12-43.4,0h0Z"/>
          <path class="cls-3" d="M217.5,396.3l92.5-92.4c12-12,12-31.4,0-43.4l-27.5-27.6c-5.3-5.3-13.8-5.3-19.1,0,0,0,0,0,0,0-5.3,5.3-5.3,13.8,0,19.1,0,0,0,0,0,0l23.7,23.7c3.5,3.5,3.5,9.3,0,12.8l-84.9,84.9c-3.5,3.5-9.3,3.5-12.8,0l-50.7-50.7c-3.5-3.5-3.5-9.3,0-12.8l40.3-40.3c5.3-5.3,5.3-13.9,0-19.1h0c-5.3-5.3-13.8-5.3-19.1,0h0s-44.1,44.1-44.1,44.1c-12,12-12,31.4,0,43.4l58.3,58.3c12,12,31.4,12,43.4,0,0,0,0,0,0,0h0Z"/>
        </g>
      </g>
    </g>
  </g>
</svg>